<?xml version="1.0" encoding="utf-8"?>
<svg xmlns="http://www.w3.org/2000/svg" style="margin: auto; background: none; display: block; shape-rendering: auto;" width="164" height="34" preserveAspectRatio="xMidYMid">
<style type="text/css">
  text {
    text-anchor: middle; font-size: 28px; opacity: 0;
  }
</style>
<g style="transform-origin:82px 17px;transform:scale(1)">
<g transform="translate(82,17)">
  <g transform="translate(0,0)"><g class="path" style="opacity: 1; transform-origin: -58.035px -2.28156px; animation: 1s linear -0.594s infinite normal forwards running fade-40929487-0c08-470e-bbf2-6b1367617124;"><path d="M2.07 0L2.07-19.26L8.26-19.26L8.26-4.93L18.14-4.93L18.14 0L2.07 0" fill="#ffc040" stroke="none" stroke-width="none" transform="translate(-68.13998413085938,7.348440765380864)" style="fill: rgb(255, 192, 64);"></path></g><g class="path" style="opacity: 1; transform-origin: -40.13px -0.0415592px; animation: 1s linear -0.528s infinite normal forwards running fade-40929487-0c08-470e-bbf2-6b1367617124;"><path d="M28-15.12L28-15.12Q31.89-15.12 34.12-13.15L34.12-13.15L34.12-13.15Q36.34-11.17 36.34-7.39L36.34-7.39L36.34-7.39Q36.34-3.61 34.12-1.64L34.12-1.64L34.12-1.64Q31.89 0.34 28 0.34L28 0.34L28 0.34Q24.11 0.34 21.90-1.62L21.90-1.62L21.90-1.62Q19.68-3.58 19.68-7.39L19.68-7.39L19.68-7.39Q19.68-11.20 21.90-13.16L21.90-13.16L21.90-13.16Q24.11-15.12 28-15.12L28-15.12zM28-11.34L28-11.34Q25.26-11.34 25.26-8.18L25.26-8.18L25.26-6.58L25.26-6.58Q25.26-3.44 28-3.44L28-3.44L28-3.44Q30.77-3.44 30.77-6.58L30.77-6.58L30.77-8.18L30.77-8.18Q30.77-11.34 28-11.34L28-11.34" fill="#ffc040" stroke="none" stroke-width="none" transform="translate(-68.13998413085938,7.348440765380864)" style="fill: rgb(255, 192, 64);"></path></g><g class="path" style="opacity: 1; transform-origin: -21.1px -0.0415592px; animation: 1s linear -0.462s infinite normal forwards running fade-40929487-0c08-470e-bbf2-6b1367617124;"><path d="M46.34-15.12L46.34-15.12Q49.73-15.12 51.86-13.99L51.86-13.99L51.86-13.99Q53.98-12.85 53.98-10.30L53.98-10.30L53.98-4.54L53.98-4.54Q53.98-4.06 54.21-3.75L54.21-3.75L54.21-3.75Q54.43-3.44 54.88-3.44L54.88-3.44L55.89-3.44L55.89-0.22L55.89-0.22Q55.80-0.17 55.45-0.04L55.45-0.04L55.45-0.04Q55.10 0.08 54.46 0.21L54.46 0.21L54.46 0.21Q53.82 0.34 52.98 0.34L52.98 0.34L52.98 0.34Q51.35 0.34 50.30-0.15L50.30-0.15L50.30-0.15Q49.25-0.64 48.86-1.51L48.86-1.51L48.86-1.51Q47.80-0.67 46.48-0.17L46.48-0.17L46.48-0.17Q45.16 0.34 43.40 0.34L43.40 0.34L43.40 0.34Q38.19 0.34 38.19-3.81L38.19-3.81L38.19-3.81Q38.19-5.96 39.35-7.10L39.35-7.10L39.35-7.10Q40.52-8.23 42.70-8.65L42.70-8.65L42.70-8.65Q44.88-9.07 48.41-9.07L48.41-9.07L48.41-9.80L48.41-9.80Q48.41-10.67 47.81-11.12L47.81-11.12L47.81-11.12Q47.21-11.56 46.26-11.56L46.26-11.56L46.26-11.56Q45.39-11.56 44.76-11.26L44.76-11.26L44.76-11.26Q44.13-10.95 44.13-10.28L44.13-10.28L44.13-10.16L38.64-10.16L38.64-10.16Q38.61-10.30 38.61-10.56L38.61-10.56L38.61-10.56Q38.61-12.66 40.61-13.89L40.61-13.89L40.61-13.89Q42.62-15.12 46.34-15.12L46.34-15.12zM48.41-6.44L48.41-6.44Q46.03-6.44 44.90-5.92L44.90-5.92L44.90-5.92Q43.76-5.40 43.76-4.54L43.76-4.54L43.76-4.54Q43.76-3.14 45.67-3.14L45.67-3.14L45.67-3.14Q46.76-3.14 47.59-3.72L47.59-3.72L47.59-3.72Q48.41-4.31 48.41-5.18L48.41-5.18L48.41-6.44" fill="#ffc040" stroke="none" stroke-width="none" transform="translate(-68.13998413085938,7.348440765380864)" style="fill: rgb(255, 192, 64);"></path></g><g class="path" style="opacity: 1; transform-origin: -3.11998px -2.63156px; animation: 1s linear -0.396s infinite normal forwards running fade-40929487-0c08-470e-bbf2-6b1367617124;"><path d="M73.00 0L68.46 0L67.98-2.10L67.98-2.10Q66.36 0.34 63.28 0.34L63.28 0.34L63.28 0.34Q60.28 0.34 58.66-1.62L58.66-1.62L58.66-1.62Q57.04-3.58 57.04-7.42L57.04-7.42L57.04-7.42Q57.04-11.23 58.66-13.17L58.66-13.17L58.66-13.17Q60.28-15.12 63.28-15.12L63.28-15.12L63.28-15.12Q65.83-15.12 67.42-13.41L67.42-13.41L67.42-20.30L73.00-20.30L73.00 0zM65.02-11.00L65.02-11.00Q62.61-11.00 62.61-8.12L62.61-8.12L62.61-6.64L62.61-6.64Q62.61-3.78 65.02-3.78L65.02-3.78L65.02-3.78Q66.25-3.78 66.86-4.65L66.86-4.65L66.86-4.65Q67.48-5.52 67.48-6.92L67.48-6.92L67.48-7.84L67.48-7.84Q67.48-9.24 66.86-10.12L66.86-10.12L66.86-10.12Q66.25-11.00 65.02-11.00L65.02-11.00" fill="#ffc040" stroke="none" stroke-width="none" transform="translate(-68.13998413085938,7.348440765380864)" style="fill: rgb(255, 192, 64);"></path></g><g class="path" style="opacity: 1; transform-origin: 11.225px -11.0616px; animation: 1s linear -0.33s infinite normal forwards running fade-40929487-0c08-470e-bbf2-6b1367617124;"><path d="M82.15-16.52L76.58-16.52L76.58-20.30L82.15-20.30L82.15-16.52" fill="#ffc040" stroke="none" stroke-width="none" transform="translate(-68.13998413085938,7.348440765380864)" style="fill: rgb(255, 192, 64);"></path></g><g class="path" style="opacity: 1; transform-origin: 11.225px -0.0415592px; animation: 1s linear -0.264s infinite normal forwards running fade-40929487-0c08-470e-bbf2-6b1367617124;"><path d="M82.15 0L76.58 0L76.58-14.78L82.15-14.78L82.15 0" fill="#ffc040" stroke="none" stroke-width="none" transform="translate(-68.13998413085938,7.348440765380864)" style="fill: rgb(255, 192, 64);"></path></g><g class="path" style="opacity: 1; transform-origin: 25.24px -0.211559px; animation: 1s linear -0.198s infinite normal forwards running fade-40929487-0c08-470e-bbf2-6b1367617124;"><path d="M95.90-15.12L95.90-15.12Q98.48-15.12 99.76-13.69L99.76-13.69L99.76-13.69Q101.05-12.26 101.05-9.58L101.05-9.58L101.05 0L95.48 0L95.48-8.90L95.48-8.90Q95.48-9.86 94.99-10.43L94.99-10.43L94.99-10.43Q94.50-11.00 93.60-11.00L93.60-11.00L93.60-11.00Q92.57-11.00 91.92-10.33L91.92-10.33L91.92-10.33Q91.28-9.66 91.28-8.68L91.28-8.68L91.28 0L85.71 0L85.71-14.78L90.27-14.78L90.64-12.54L90.64-12.54Q91.50-13.72 92.92-14.42L92.92-14.42L92.92-14.42Q94.33-15.12 95.90-15.12L95.90-15.12" fill="#ffc040" stroke="none" stroke-width="none" transform="translate(-68.13998413085938,7.348440765380864)" style="fill: rgb(255, 192, 64);"></path></g><g class="path" style="opacity: 1; transform-origin: 43.79px 1.50844px; animation: 1s linear -0.132s infinite normal forwards running fade-40929487-0c08-470e-bbf2-6b1367617124;"><path d="M121.02-17.56L121.02-17.56Q121.02-15.85 120.16-14.92L120.16-14.92L120.16-14.92Q119.31-14 117.60-13.55L117.60-13.55L117.60-13.55Q118.41-12.94 118.87-12.11L118.87-12.11L118.87-12.11Q119.34-11.28 119.34-10.36L119.34-10.36L119.34-10.36Q119.34-8.01 117.56-6.80L117.56-6.80L117.56-6.80Q115.78-5.60 113.12-5.60L113.12-5.60L110.99-5.60L110.99-5.60Q109.23-5.60 109.23-4.79L109.23-4.79L109.23-4.79Q109.23-4.40 109.62-4.16L109.62-4.16L109.62-4.16Q110.01-3.92 110.99-3.92L110.99-3.92L116.03-3.92L116.03-3.92Q118.50-3.92 119.76-2.63L119.76-2.63L119.76-2.63Q121.02-1.34 121.02 0.81L121.02 0.81L121.02 0.81Q121.02 2.41 120.18 3.56L120.18 3.56L120.18 3.56Q119.34 4.70 117.91 5.29L117.91 5.29L117.91 5.29Q116.48 5.88 114.80 5.88L114.80 5.88L106.57 5.88L106.57 5.88Q105.56 5.88 104.71 5.40L104.71 5.40L104.71 5.40Q103.85 4.93 103.35 4.10L103.35 4.10L103.35 4.10Q102.84 3.28 102.84 2.27L102.84 2.27L102.84 2.27Q102.84 1.18 103.52 0.29L103.52 0.29L103.52 0.29Q104.19-0.59 105.20-1.04L105.20-1.04L105.20-1.04Q104.52-1.51 104.13-2.18L104.13-2.18L104.13-2.18Q103.74-2.86 103.74-3.64L103.74-3.64L103.74-3.64Q103.74-4.73 104.55-5.61L104.55-5.61L104.55-5.61Q105.36-6.50 106.57-6.80L106.57-6.80L106.57-6.80Q105.48-7.50 104.83-8.41L104.83-8.41L104.83-8.41Q104.19-9.32 104.19-10.33L104.19-10.33L104.19-10.33Q104.19-12.91 106.27-14.01L106.27-14.01L106.27-14.01Q108.36-15.12 111.80-15.12L111.80-15.12L111.80-15.12Q113.32-15.12 114.24-14.95L114.24-14.95L114.24-14.95Q115.61-15.82 116.02-16.53L116.02-16.53L116.02-16.53Q116.42-17.25 116.42-17.56L116.42-17.56L121.02-17.56zM111.75-12.21L111.75-12.21Q110.82-12.21 110.24-11.73L110.24-11.73L110.24-11.73Q109.65-11.26 109.65-10.36L109.65-10.36L109.65-10.36Q109.65-9.44 110.19-8.97L110.19-8.97L110.19-8.97Q110.74-8.51 111.75-8.51L111.75-8.51L111.75-8.51Q112.76-8.51 113.33-8.97L113.33-8.97L113.33-8.97Q113.90-9.44 113.90-10.36L113.90-10.36L113.90-10.36Q113.90-11.28 113.33-11.75L113.33-11.75L113.33-11.75Q112.76-12.21 111.75-12.21L111.75-12.21zM109.59 0L109.59 0Q108.95 0 108.54 0.35L108.54 0.35L108.54 0.35Q108.14 0.70 108.14 1.34L108.14 1.34L108.14 1.34Q108.14 1.99 108.56 2.38L108.56 2.38L108.56 2.38Q108.98 2.77 109.59 2.77L109.59 2.77L113.96 2.77L113.96 2.77Q114.58 2.77 115.01 2.39L115.01 2.39L115.01 2.39Q115.44 2.02 115.44 1.37L115.44 1.37L115.44 1.37Q115.44 0.73 115.02 0.36L115.02 0.36L115.02 0.36Q114.60 0 113.96 0L113.96 0L109.59 0" fill="#ffc040" stroke="none" stroke-width="none" transform="translate(-68.13998413085938,7.348440765380864)" style="fill: rgb(255, 192, 64);"></path></g><g class="path" style="opacity: 1; transform-origin: 57.915px 4.56344px; animation: 1s linear -0.066s infinite normal forwards running fade-40929487-0c08-470e-bbf2-6b1367617124;"><path d="M129.02 0L123.09 0L123.09-5.57L129.02-5.57L129.02 0" fill="#ffc040" stroke="none" stroke-width="none" transform="translate(-68.13998413085938,7.348440765380864)" style="fill: rgb(255, 192, 64);"></path></g><g class="path" style="opacity: 1; transform-origin: 67.24px 4.56344px; animation: 1s linear 0s infinite normal forwards running fade-40929487-0c08-470e-bbf2-6b1367617124;"><path d="M138.35 0L132.41 0L132.41-5.57L138.35-5.57L138.35 0" fill="#ffc040" stroke="none" stroke-width="none" transform="translate(-68.13998413085938,7.348440765380864)" style="fill: rgb(255, 192, 64);"></path></g></g>
</g>
</g>
<style id="fade-40929487-0c08-470e-bbf2-6b1367617124" data-anikit="">@keyframes fade-40929487-0c08-470e-bbf2-6b1367617124
{
  0% {
    animation-timing-function: cubic-bezier(0.2057,0.573,0.3723,0.9184);
    opacity: 1;
  }
  100% {
    opacity: 0;
  }
}</style></svg>