<?xml version="1.0" encoding="utf-8"?>
<svg xmlns="http://www.w3.org/2000/svg" style="margin: auto; background: transparent; display: block; shape-rendering: auto;" width="169" height="84" preserveAspectRatio="xMidYMid">
<style type="text/css">
  text {
    text-anchor: middle; font-size: 79px; opacity: 0;
  }
</style>
<g style="transform-origin:84.5px 42px;transform:scale(1)">
<g transform="translate(84.5,42)">
  <g transform="translate(0,0)"><g class="path" style="transform: scale(0.91); transform-origin: -31.6px -7.3752px; animation: 1s linear -0.33s infinite normal forwards running breath-7a72c2a7-5a1c-4150-9b60-6b519aab328a;"><path d="M88.72-61.46L88.72-48.51L84.77-48.51L84.77-12.96L88.72-12.96L88.72 0L58.86 0L58.86-12.96L62.65-12.96L62.65-40.61L49.22 0L37.52 0L23.70-40.21L23.70-12.96L27.49-12.96L27.49 0L1.58 0L1.58-12.96L5.53-12.96L5.53-48.51L1.58-48.51L1.58-61.46L37.76-61.46L45.98-36.81L53.88-61.46L88.72-61.46" fill="#000000" stroke="none" stroke-width="none" transform="translate(-76.74996948242188,23.354796752929687)" style="fill: rgb(0, 0, 0);"></path></g><g class="path" style="transform: scale(0.91); transform-origin: 46.73px -7.3752px; animation: 1s linear 0s infinite normal forwards running breath-7a72c2a7-5a1c-4150-9b60-6b519aab328a;"><path d="M155.08-61.46L155.08-48.51L151.13-48.51L151.13-12.96L155.08-12.96L155.08 0L125.22 0L125.22-12.96L129.01-12.96L129.01-25.99L117.95-25.99L117.95-12.96L121.74-12.96L121.74 0L91.88 0L91.88-12.96L95.83-12.96L95.83-48.51L91.88-48.51L91.88-61.46L121.74-61.46L121.74-48.51L117.95-48.51L117.95-36.50L129.01-36.50L129.01-48.51L125.22-48.51L125.22-61.46L155.08-61.46" fill="#000000" stroke="none" stroke-width="none" transform="translate(-76.74996948242188,23.354796752929687)" style="fill: rgb(255, 192, 64);"></path></g></g>
</g>
</g>
<style id="breath-7a72c2a7-5a1c-4150-9b60-6b519aab328a" data-anikit="">@keyframes breath-7a72c2a7-5a1c-4150-9b60-6b519aab328a
{
  0% {
    animation-timing-function: cubic-bezier(0.9647,0.2413,-0.0705,0.7911);
    transform: scale(0.9099999999999999);
  }
  51% {
    animation-timing-function: cubic-bezier(0.9226,0.2631,-0.0308,0.7628);
    transform: scale(1.02994);
  }
  100% {
    transform: scale(0.9099999999999999);
  }
}</style></svg>